<svg width="185" height="40" viewBox="0 0 185 40" fill="none" xmlns="http://www.w3.org/2000/svg">
    <path d="M27.3661 16.0797H20.8672V40H27.3661V16.0797Z" fill="#1C1C1C" />
    <path d="M38.8694 35.2764L43.4648 30.7186L26.411 13.8044L21.8155 18.3622L38.8694 35.2764Z"
        fill="#1C1C1C" />
    <path d="M48.2266 19.3026V12.8568L24.1088 12.8568V19.3026H48.2266Z" fill="#1C1C1C" />
    <path d="M27.3661 0H20.8672V23.9203H27.3661V0Z" fill="#1C1C1C" />
    <path d="M0 12.8568L0 19.3026H24.1178V12.8568L0 12.8568Z" fill="#1C1C1C" />
    <path d="M4.76587 30.713L9.36133 35.2709L26.4152 18.3567L21.8197 13.7988L4.76587 30.713Z"
        fill="#1C1C1C" />
    <path
        d="M61.1992 37.5655V12.8568H66.5801V22.3955H70.5284L77.831 12.8568H83.998L75.3677 24.3535L84.7405 37.5655H78.3289L70.9302 27.1432H66.5888V37.5655H61.208H61.1992Z"
        fill="#1C1C1C" />
    <path
        d="M98.2716 38.1546C95.7733 38.1546 93.5109 37.5915 91.4844 36.4739C89.4578 35.3476 87.8767 33.7968 86.7237 31.8215C85.5707 29.8462 84.9941 27.6543 84.9941 25.2372C84.9941 22.82 85.5707 20.6195 86.7237 18.6355C87.8767 16.6428 89.4578 15.0834 91.4844 13.9571C93.5022 12.8308 95.7646 12.2677 98.2716 12.2677C100.779 12.2677 103.085 12.8308 105.102 13.9571C107.12 15.0834 108.71 16.6428 109.863 18.6355C111.016 20.6195 111.593 22.8287 111.593 25.2372C111.593 27.6457 111.016 29.8462 109.863 31.8215C108.71 33.7968 107.129 35.3476 105.102 36.4739C103.076 37.6002 100.805 38.1546 98.2716 38.1546ZM98.2716 33.407C99.7478 33.407 101.084 33.0604 102.272 32.376C103.452 31.6916 104.386 30.7299 105.059 29.491C105.731 28.2521 106.072 26.8313 106.072 25.2372C106.072 23.6431 105.731 22.1789 105.059 20.9313C104.386 19.6924 103.452 18.7308 102.272 18.0464C101.084 17.3619 99.7566 17.0154 98.2716 17.0154C96.7866 17.0154 95.5113 17.3619 94.3233 18.0464C93.1353 18.7308 92.2094 19.6924 91.5368 20.9313C90.8642 22.1702 90.5235 23.6084 90.5235 25.2372C90.5235 26.8659 90.8554 28.2521 91.5368 29.491C92.2094 30.7299 93.144 31.6916 94.3233 32.376C95.5113 33.0691 96.8215 33.407 98.2716 33.407Z"
        fill="#1C1C1C" />
    <path
        d="M115.471 37.5655V12.8568H120.852V16.6688H121C121.559 15.4906 122.441 14.5029 123.638 13.7145C124.835 12.9175 126.294 12.519 128.006 12.519H131.395V17.7518H127.665C126.32 17.7518 125.132 18.029 124.11 18.5835C123.088 19.138 122.293 19.9177 121.716 20.9053C121.14 21.9017 120.852 23.0539 120.852 24.3535V37.5655H115.471Z"
        fill="#1C1C1C" />
    <path
        d="M160.754 37.5655V12.8568H166.135V16.4263H166.283C167.008 15.248 168.065 14.2603 169.463 13.4633C170.86 12.6662 172.511 12.2677 174.424 12.2677C177.482 12.2677 179.893 13.1947 181.648 15.0314C183.413 16.8768 184.286 19.4585 184.286 22.7854V37.5655H178.862V23.3745C178.862 21.2519 178.338 19.6665 177.281 18.6008C176.233 17.5439 174.783 17.0154 172.939 17.0154C171.655 17.0154 170.502 17.3186 169.489 17.9164C168.467 18.5229 167.655 19.3892 167.052 20.5155C166.441 21.6418 166.135 22.924 166.135 24.3535V37.5655H160.754Z"
        fill="#1C1C1C" />
    <path
        d="M151.118 30.4007C150.577 31.1631 149.843 31.8215 148.917 32.3673C147.729 33.0691 146.279 33.4243 144.567 33.4243C143.318 33.4243 142.147 33.1211 141.064 32.5146C139.981 31.9168 139.081 31.0851 138.374 30.0455C137.666 28.9972 137.23 27.8449 137.064 26.5627H157.556V25.0985C157.556 22.7507 156.997 20.5848 155.879 18.6095C154.761 16.6342 153.215 15.0834 151.241 13.9571C149.267 12.8308 147.039 12.2677 144.576 12.2677C142.113 12.2677 139.937 12.8308 137.963 13.9571C135.989 15.0834 134.426 16.6428 133.273 18.6355C132.119 20.6281 131.543 22.8287 131.543 25.2458C131.543 27.663 132.119 29.8636 133.273 31.8302C134.426 33.8055 135.989 35.3563 137.963 36.4826C139.937 37.6088 142.139 38.172 144.576 38.172C147.904 38.172 150.629 37.3576 152.752 35.7288C154.674 34.2473 156.063 32.4713 156.919 30.4007H151.127H151.118ZM138.592 19.909C139.247 19.0253 140.103 18.3236 141.134 17.8038C142.174 17.284 143.318 17.0154 144.567 17.0154C145.816 17.0154 147.013 17.2753 148.052 17.8038C149.092 18.3236 149.93 19.0253 150.568 19.909C151.215 20.7927 151.616 21.7544 151.774 22.8027H137.203C137.465 21.7544 137.928 20.7927 138.584 19.909H138.592Z"
        fill="#1C1C1C" />
</svg>